<svg xmlns="http://www.w3.org/2000/svg" viewBox="0 0 900 600">
  <!-- Dashboard Background -->
  <rect width="900" height="600" fill="#f5f6f8" />
  
  <!-- Dashboard Header -->
  <rect x="20" y="20" width="860" height="60" rx="6" fill="#ffffff" stroke="#e0e0e0" stroke-width="1" />
  <text x="40" y="55" font-family="Arial" font-size="22" font-weight="bold" fill="#323338">Product Development & Bug Tracking Dashboard</text>
  <text x="700" y="55" font-family="Arial" font-size="14" fill="#676879">Last updated: Feb 28, 2025</text>
  
  <!-- Overdue Items Widget -->
  <rect x="20" y="100" width="420" height="230" rx="6" fill="#ffffff" stroke="#e0e0e0" stroke-width="1" />
  <text x="40" y="130" font-family="Arial" font-size="16" font-weight="bold" fill="#323338">Overdue Items</text>
  
  <!-- Overdue Bar Chart -->
  <rect x="40" y="145" width="380" height="170" rx="4" fill="#fcfcfc" />
  <line x1="40" y1="285" x2="420" y2="285" stroke="#e0e0e0" stroke-width="1" />
  <line x1="40" y1="145" x2="40" y2="285" stroke="#e0e0e0" stroke-width="1" />
  
  <!-- Bar Chart Axes -->
  <text x="38" y="280" font-family="Arial" font-size="10" fill="#676879">0</text>
  <text x="33" y="240" font-family="Arial" font-size="10" fill="#676879">5</text>
  <text x="28" y="200" font-family="Arial" font-size="10" fill="#676879">10</text>
  <text x="28" y="160" font-family="Arial" font-size="10" fill="#676879">15</text>
  
  <!-- Product Development Overdue -->
  <rect x="100" y="180" width="50" height="105" fill="#0073ea" rx="2" />
  <text x="125" y="300" font-family="Arial" font-size="12" text-anchor="middle" fill="#676879">Critical</text>
  
  <rect x="170" y="210" width="50" height="75" fill="#0086ff" rx="2" />
  <text x="195" y="300" font-family="Arial" font-size="12" text-anchor="middle" fill="#676879">High</text>
  
  <rect x="240" y="240" width="50" height="45" fill="#66b2ff" rx="2" />
  <text x="265" y="300" font-family="Arial" font-size="12" text-anchor="middle" fill="#676879">Medium</text>
  
  <!-- Bug Fixing Overdue -->
  <rect x="310" y="200" width="50" height="85" fill="#e2445c" rx="2" />
  <text x="335" y="300" font-family="Arial" font-size="12" text-anchor="middle" fill="#676879">Bugs</text>
  
  <!-- Legend -->
  <rect x="40" y="310" width="10" height="10" fill="#0073ea" />
  <text x="55" y="319" font-family="Arial" font-size="12" fill="#323338">Product Dev</text>
  
  <rect x="150" y="310" width="10" height="10" fill="#e2445c" />
  <text x="165" y="319" font-family="Arial" font-size="12" fill="#323338">Bug Fixing</text>
  
  <!-- Upcoming Milestones Widget -->
  <rect x="460" y="100" width="420" height="230" rx="6" fill="#ffffff" stroke="#e0e0e0" stroke-width="1" />
  <text x="480" y="130" font-family="Arial" font-size="16" font-weight="bold" fill="#323338">Upcoming Milestones</text>
  
  <!-- Milestone Timeline -->
  <line x1="480" y1="170" x2="860" y2="170" stroke="#e0e0e0" stroke-width="1" />
  <text x="480" y="160" font-family="Arial" font-size="12" fill="#676879">Today</text>
  <text x="580" y="160" font-family="Arial" font-size="12" fill="#676879">Mar 7</text>
  <text x="680" y="160" font-family="Arial" font-size="12" fill="#676879">Mar 14</text>
  <text x="780" y="160" font-family="Arial" font-size="12" fill="#676879">Mar 21</text>
  
  <!-- Milestone Points -->
  <circle cx="520" cy="170" r="8" fill="#0073ea" />
  <line x1="520" y1="170" x2="520" y2="200" stroke="#0073ea" stroke-width="1" stroke-dasharray="3" />
  <rect x="480" y="200" width="180" height="30" rx="4" fill="#eef5ff" />
  <text x="490" y="220" font-family="Arial" font-size="12" fill="#0073ea">UI Design Completion</text>
  
  <circle cx="650" cy="170" r="8" fill="#e2445c" />
  <line x1="650" y1="170" x2="650" y2="240" stroke="#e2445c" stroke-width="1" stroke-dasharray="3" />
  <rect x="570" y="240" width="160" height="30" rx="4" fill="#fce6e8" />
  <text x="580" y="260" font-family="Arial" font-size="12" fill="#e2445c">Critical Bug Resolution</text>
  
  <circle cx="800" cy="170" r="8" fill="#0073ea" />
  <line x1="800" y1="170" x2="800" y2="280" stroke="#0073ea" stroke-width="1" stroke-dasharray="3" />
  <rect x="720" y="280" width="160" height="30" rx="4" fill="#eef5ff" />
  <text x="730" y="300" font-family="Arial" font-size="12" fill="#0073ea">Beta Release</text>
  
  <!-- Key Metrics Widget -->
  <rect x="20" y="350" width="270" height="230" rx="6" fill="#ffffff" stroke="#e0e0e0" stroke-width="1" />
  <text x="40" y="380" font-family="Arial" font-size="16" font-weight="bold" fill="#323338">Key Metrics</text>
  
  <!-- Numbers -->
  <rect x="40" y="400" width="110" height="80" rx="4" fill="#f0f0f0" />
  <text x="95" y="440" font-family="Arial" font-size="30" font-weight="bold" text-anchor="middle" fill="#e2445c">17</text>
  <text x="95" y="465" font-family="Arial" font-size="12" text-anchor="middle" fill="#676879">Total Overdue</text>
  
  <rect x="160" y="400" width="110" height="80" rx="4" fill="#f0f0f0" />
  <text x="215" y="440" font-family="Arial" font-size="30" font-weight="bold" text-anchor="middle" fill="#0073ea">3</text>
  <text x="215" y="465" font-family="Arial" font-size="12" text-anchor="middle" fill="#676879">Milestones This Week</text>
  
  <rect x="40" y="490" width="110" height="80" rx="4" fill="#f0f0f0" />
  <text x="95" y="530" font-family="Arial" font-size="30" font-weight="bold" text-anchor="middle" fill="#fdab3d">85%</text>
  <text x="95" y="555" font-family="Arial" font-size="12" text-anchor="middle" fill="#676879">Sprint Completion</text>
  
  <rect x="160" y="490" width="110" height="80" rx="4" fill="#f0f0f0" />
  <text x="215" y="530" font-family="Arial" font-size="30" font-weight="bold" text-anchor="middle" fill="#00c875">72%</text>
  <text x="215" y="555" font-family="Arial" font-size="12" text-anchor="middle" fill="#676879">Bug Resolution Rate</text>
  
  <!-- Critical Items Widget -->
  <rect x="310" y="350" width="570" height="230" rx="6" fill="#ffffff" stroke="#e0e0e0" stroke-width="1" />
  <text x="330" y="380" font-family="Arial" font-size="16" font-weight="bold" fill="#323338">Critical Items Requiring Action</text>
  
  <!-- Table Headers -->
  <rect x="330" y="395" width="530" height="30" fill="#f5f6f8" />
  <text x="345" y="415" font-family="Arial" font-size="12" font-weight="bold" fill="#323338">Item</text>
  <text x="515" y="415" font-family="Arial" font-size="12" font-weight="bold" fill="#323338">Board</text>
  <text x="615" y="415" font-family="Arial" font-size="12" font-weight="bold" fill="#323338">Owner</text>
  <text x="715" y="415" font-family="Arial" font-size="12" font-weight="bold" fill="#323338">Due Date</text>
  <text x="815" y="415" font-family="Arial" font-size="12" font-weight="bold" fill="#323338">Status</text>
  
  <!-- Table Rows -->
  <line x1="330" y1="425" x2="860" y2="425" stroke="#e0e0e0" stroke-width="1" />
  
  <!-- Row 1 -->
  <text x="345" y="445" font-family="Arial" font-size="12" fill="#323338">Authentication Service Issue</text>
  <text x="515" y="445" font-family="Arial" font-size="12" fill="#e2445c">Bug Fixing</text>
  <text x="615" y="445" font-family="Arial" font-size="12" fill="#323338">Alex Kim</text>
  <text x="715" y="445" font-family="Arial" font-size="12" fill="#e2445c">Feb 26, 2025</text>
  <rect x="815" y="435" width="60" height="16" rx="8" fill="#ffadad" />
  <text x="845" y="447" font-family="Arial" font-size="10" text-anchor="middle" fill="#e2445c">Overdue</text>
  
  <!-- Row 2 -->
  <line x1="330" y1="455" x2="860" y2="455" stroke="#e0e0e0" stroke-width="1" />
  <text x="345" y="475" font-family="Arial" font-size="12" fill="#323338">Payment Gateway Integration</text>
  <text x="515" y="475" font-family="Arial" font-size="12" fill="#0073ea">Product Dev</text>
  <text x="615" y="475" font-family="Arial" font-size="12" fill="#323338">Maria Lopez</text>
  <text x="715" y="475" font-family="Arial" font-size="12" fill="#e2445c">Feb 24, 2025</text>
  <rect x="815" y="465" width="60" height="16" rx="8" fill="#ffadad" />
  <text x="845" y="477" font-family="Arial" font-size="10" text-anchor="middle" fill="#e2445c">Overdue</text>
  
  <!-- Row 3 -->
  <line x1="330" y1="485" x2="860" y2="485" stroke="#e0e0e0" stroke-width="1" />
  <text x="345" y="505" font-family="Arial" font-size="12" fill="#323338">User Profile Page Error</text>
  <text x="515" y="505" font-family="Arial" font-size="12" fill="#e2445c">Bug Fixing</text>
  <text x="615" y="505" font-family="Arial" font-size="12" fill="#323338">John Davis</text>
  <text x="715" y="505" font-family="Arial" font-size="12" fill="#e2445c">Feb 25, 2025</text>
  <rect x="815" y="495" width="60" height="16" rx="8" fill="#ffadad" />
  <text x="845" y="507" font-family="Arial" font-size="10" text-anchor="middle" fill="#e2445c">Overdue</text>
  
  <!-- Row 4 -->
  <line x1="330" y1="515" x2="860" y2="515" stroke="#e0e0e0" stroke-width="1" />
  <text x="345" y="535" font-family="Arial" font-size="12" fill="#323338">API Documentation</text>
  <text x="515" y="535" font-family="Arial" font-size="12" fill="#0073ea">Product Dev</text>
  <text x="615" y="535" font-family="Arial" font-size="12" fill="#323338">Sarah Chen</text>
  <text x="715" y="535" font-family="Arial" font-size="12" fill="#fdab3d">Mar 1, 2025</text>
  <rect x="815" y="525" width="60" height="16" rx="8" fill="#ffedc3" />
  <text x="845" y="537" font-family="Arial" font-size="10" text-anchor="middle" fill="#fdab3d">At Risk</text>
  
  <!-- Row 5 -->
  <line x1="330" y1="545" x2="860" y2="545" stroke="#e0e0e0" stroke-width="1" />
  <text x="345" y="565" font-family="Arial" font-size="12" fill="#323338">UI Design Completion</text>
  <text x="515" y="565" font-family="Arial" font-size="12" fill="#0073ea">Product Dev</text>
  <text x="615" y="565" font-family="Arial" font-size="12" fill="#323338">David Park</text>
  <text x="715" y="565" font-family="Arial" font-size="12" fill="#0073ea">Mar 7, 2025</text>
  <rect x="815" y="555" width="60" height="16" rx="8" fill="#d8f8e8" />
  <text x="845" y="567" font-family="Arial" font-size="10" text-anchor="middle" fill="#00c875">On Track</text>
</svg>
